<svg xmlns="http://www.w3.org/2000/svg" xmlns:xlink="http://www.w3.org/1999/xlink" version="1.1" x="0px" y="0px" viewBox="0 0 100 100" enable-background="new 0 0 100 100" xml:space="preserve"><g><g><path fill="#000000" d="M81.378,61.941v9.541h9.541c2.235,0,4.089,1.799,4.089,4.089c0,2.235-1.854,4.089-4.089,4.089h-9.541    v9.541c0,2.235-1.854,4.089-4.089,4.089c-2.29,0-4.089-1.854-4.089-4.089v-9.541h-9.541c-2.29,0-4.089-1.854-4.089-4.089    c0-2.29,1.799-4.089,4.089-4.089h9.541v-9.541c0-2.29,1.799-4.089,4.089-4.089C79.524,57.852,81.378,59.651,81.378,61.941z"></path><path fill="#000000" d="M92.555,35.552c1.581,1.908,2.399,4.253,2.399,6.706c0.055,2.617-0.981,5.398-3.162,7.47l-1.908,1.854    c-1.581,1.581-4.198,1.581-5.779-0.055c-1.581-1.636-1.527-4.198,0.109-5.779l1.908-1.854c0.491-0.545,0.654-1.036,0.709-1.636    c0-0.545-0.218-1.145-0.6-1.527c-0.327-0.436-0.763-0.709-1.472-0.818L64.312,36.97c-1.309-0.218-2.454-1.036-3.053-2.235    l-9.105-18.538c-0.491-0.927-1.254-1.309-2.126-1.309c-0.927,0-1.636,0.327-2.126,1.254v0.055l-9.16,18.538    c-0.6,1.199-1.745,2.017-3.053,2.235l-20.446,2.944c-0.709,0.109-1.145,0.382-1.527,0.818c-0.327,0.382-0.545,0.981-0.545,1.527    c0.055,0.6,0.164,1.09,0.709,1.636l14.83,14.448c0.981,0.927,1.418,2.29,1.199,3.598l-3.489,20.391v0.055l-0.055,0.436    c0,0.6,0.218,1.145,0.709,1.581c0.436,0.436,1.036,0.709,1.581,0.709l1.145-0.327l17.229-9.051    c2.017-1.036,4.471-0.273,5.507,1.745c1.09,1.963,0.273,4.471-1.69,5.507l-17.229,9.051c-1.581,0.818-3.271,1.254-4.962,1.254    c-2.781-0.055-5.398-1.145-7.306-2.999c-1.908-1.854-3.162-4.525-3.162-7.47c0-0.654,0.055-1.254,0.164-1.854v-0.055l3.108-18.21    L8.209,49.728c-2.181-2.017-3.217-4.852-3.217-7.47c0-2.454,0.872-4.798,2.399-6.706c1.581-1.908,3.926-3.38,6.652-3.762    l18.319-2.617l8.233-16.629c1.908-3.817,5.725-5.888,9.432-5.834c0.055,0,0.109,0,0.164,0c3.598,0,7.361,2.017,9.269,5.834    l8.178,16.629l18.319,2.617C88.684,32.172,91.028,33.644,92.555,35.552z"></path></g></g></svg>