<svg xmlns="http://www.w3.org/2000/svg" xmlns:xlink="http://www.w3.org/1999/xlink" version="1.1" x="0px" y="0px" viewBox="0 0 100 100" style="enable-background:new 0 0 100 100;" xml:space="preserve"><g><path d="M83.6,16.4c-1.2-1.2-3.1-1.2-4.2,0L50,45.8L20.6,16.4c-1.2-1.2-3.1-1.2-4.2,0c-1.2,1.2-1.2,3.1,0,4.2L45.8,50L16.4,79.4   c-1.2,1.2-1.2,3.1,0,4.2c0.6,0.6,1.4,0.9,2.1,0.9s1.5-0.3,2.1-0.9L50,54.2l29.4,29.4c0.6,0.6,1.4,0.9,2.1,0.9s1.5-0.3,2.1-0.9   c1.2-1.2,1.2-3.1,0-4.2L54.2,50l29.4-29.4C84.8,19.4,84.8,17.6,83.6,16.4z"></path></g></svg>