<svg xmlns="http://www.w3.org/2000/svg" xmlns:xlink="http://www.w3.org/1999/xlink" version="1.1" x="0px" y="0px" viewBox="0 0 100 100" enable-background="new 0 0 100 100" xml:space="preserve"><g><path d="M43.314,42.083h21.646c0.81,0,1.468-0.896,1.468-2s-0.657-2-1.468-2H43.314c-0.81,0-1.467,0.896-1.467,2   S42.503,42.083,43.314,42.083z"></path><path d="M64.427,48.083h-29.5c-1.104,0-2,0.896-2,2s0.896,2,2,2h29.5c1.104,0,2-0.896,2-2S65.531,48.083,64.427,48.083z"></path><path d="M64.959,57.917H43.314c-0.81,0-1.467,0.896-1.467,2s0.657,2,1.467,2h21.646c0.81,0,1.468-0.896,1.468-2   S65.77,57.917,64.959,57.917z"></path></g></svg>
